<svg xmlns="http://www.w3.org/2000/svg" width="23.767" height="27.162" viewBox="0 0 23.767 27.162">
  <path id="Icon_awesome-bell" data-name="Icon awesome-bell" d="M11.884,27.162a3.4,3.4,0,0,0,3.394-3.4H8.49A3.4,3.4,0,0,0,11.884,27.162ZM23.31,19.22c-1.025-1.1-2.943-2.758-2.943-8.185A8.378,8.378,0,0,0,13.58,2.8V1.7a1.7,1.7,0,1,0-3.393,0V2.8A8.378,8.378,0,0,0,3.4,11.035c0,5.427-1.918,7.084-2.943,8.185A1.658,1.658,0,0,0,0,20.372a1.7,1.7,0,0,0,1.7,1.7H22.064a1.7,1.7,0,0,0,1.7-1.7,1.657,1.657,0,0,0-.457-1.152Z" transform="translate(0)" fill="#fff" opacity="1"/>
</svg>
