<svg xmlns="http://www.w3.org/2000/svg" width="22.792" height="19.943" viewBox="0 0 22.792 19.943">
  <path id="Icon_awesome-camera" data-name="Icon awesome-camera" d="M22.792,7.236v12.82a2.137,2.137,0,0,1-2.137,2.137H2.137A2.137,2.137,0,0,1,0,20.056V7.236A2.137,2.137,0,0,1,2.137,5.1H6.054L6.6,3.634a2.134,2.134,0,0,1,2-1.384h5.587a2.134,2.134,0,0,1,2,1.384L16.738,5.1h3.917A2.137,2.137,0,0,1,22.792,7.236Zm-6.054,6.41A5.342,5.342,0,1,0,11.4,18.988,5.346,5.346,0,0,0,16.738,13.646Zm-1.424,0A3.917,3.917,0,1,1,11.4,9.728,3.923,3.923,0,0,1,15.313,13.646Z" transform="translate(0 -2.25)" fill="#fff" opacity="0.5"/>
</svg>
