<svg xmlns="http://www.w3.org/2000/svg" width="17.752" height="17.751" viewBox="0 0 17.752 17.751">
  <g id="Iconly_Bold_Category" data-name="Iconly/Bold/Category" transform="translate(-2 -2)">
    <g id="Category" transform="translate(2 2)">
      <path id="Path_12" data-name="Path 12" d="M5.254,10.18a2.257,2.257,0,0,1,2.254,2.273h0v3.026a2.261,2.261,0,0,1-2.254,2.272h-3A2.267,2.267,0,0,1,0,15.479H0V12.453A2.262,2.262,0,0,1,2.254,10.18h3Zm10.243,0a2.262,2.262,0,0,1,2.254,2.273h0v3.026A2.267,2.267,0,0,1,15.5,17.751h-3a2.261,2.261,0,0,1-2.254-2.272h0V12.453A2.257,2.257,0,0,1,12.5,10.18h3ZM5.254,0A2.262,2.262,0,0,1,7.509,2.273h0V5.3A2.256,2.256,0,0,1,5.254,7.571h-3A2.261,2.261,0,0,1,0,5.3H0V2.273A2.267,2.267,0,0,1,2.254,0h3ZM15.5,0a2.267,2.267,0,0,1,2.254,2.273h0V5.3A2.261,2.261,0,0,1,15.5,7.571h-3A2.256,2.256,0,0,1,10.243,5.3h0V2.273A2.262,2.262,0,0,1,12.5,0h3Z" transform="translate(0 0)" fill="#00a36c"/>
    </g>
  </g>
</svg>
