<svg xmlns="http://www.w3.org/2000/svg" width="32.385" height="35.991" viewBox="0 0 32.385 35.991">
  <path id="Icon_material-fingerprint" data-name="Icon material-fingerprint" d="M31.152,7.445a.836.836,0,0,1-.414-.108A20.59,20.59,0,0,0,20.715,4.8,20.588,20.588,0,0,0,10.691,7.337a.9.9,0,0,1-.864-1.584,22.9,22.9,0,0,1,21.739-.018.911.911,0,0,1-.414,1.71ZM5.4,16.893a.938.938,0,0,1-.522-.162.9.9,0,0,1-.216-1.26,18.605,18.605,0,0,1,6.748-5.885,20.773,20.773,0,0,1,18.553-.018,18.676,18.676,0,0,1,6.748,5.849.9.9,0,1,1-1.476,1.044,16.894,16.894,0,0,0-6.1-5.291,18.962,18.962,0,0,0-16.916.018A17.072,17.072,0,0,0,6.1,16.515a.784.784,0,0,1-.7.378ZM16.648,38.613a.844.844,0,0,1-.63-.27A18.192,18.192,0,0,1,12.4,33.592a15.975,15.975,0,0,1-1.89-7.81,9.966,9.966,0,0,1,10.185-9.7,9.966,9.966,0,0,1,10.185,9.7.9.9,0,0,1-1.8,0,8.163,8.163,0,0,0-8.386-7.9,8.163,8.163,0,0,0-8.386,7.9,14.1,14.1,0,0,0,1.674,6.928,17.034,17.034,0,0,0,3.329,4.355.924.924,0,0,1,0,1.278A.987.987,0,0,1,16.648,38.613Zm12.9-3.329a9.691,9.691,0,0,1-5.579-1.6,9.581,9.581,0,0,1-4.283-7.9.9.9,0,1,1,1.8,0,7.74,7.74,0,0,0,3.491,6.406,7.891,7.891,0,0,0,4.571,1.278,11.892,11.892,0,0,0,1.872-.18.9.9,0,0,1,.306,1.782,12.289,12.289,0,0,1-2.177.216Zm-3.617,3.707a1.053,1.053,0,0,1-.234-.036,14.041,14.041,0,0,1-6.694-3.779A13.131,13.131,0,0,1,15.1,25.782a5.427,5.427,0,0,1,5.543-5.291,5.427,5.427,0,0,1,5.543,5.291,3.752,3.752,0,0,0,7.486,0c0-6.784-5.849-12.291-13.047-12.291a13.138,13.138,0,0,0-11.9,7.252,11.577,11.577,0,0,0-1.062,5.039,17.883,17.883,0,0,0,1.206,6.5.878.878,0,0,1-.522,1.152A.893.893,0,0,1,7.2,32.909a20.048,20.048,0,0,1-1.314-7.126A13.52,13.52,0,0,1,7.11,19.952a14.934,14.934,0,0,1,13.515-8.278c8.188,0,14.846,6.316,14.846,14.091a5.549,5.549,0,0,1-11.085,0,3.624,3.624,0,0,0-3.743-3.491A3.624,3.624,0,0,0,16.9,25.764a11.333,11.333,0,0,0,3.365,8.116A12.237,12.237,0,0,0,26.15,37.21a.893.893,0,0,1,.63,1.1.878.878,0,0,1-.846.684Z" transform="translate(-4.495 -3)" fill="#00a36c"/>
</svg>
