<svg xmlns="http://www.w3.org/2000/svg" width="23.988" height="25.251" viewBox="0 0 23.988 25.251">
  <g id="Iconly_Bold_Home" data-name="Iconly/Bold/Home" transform="translate(-2.5 -2)" opacity="1">
    <g id="Home" transform="translate(2.5 2)">
      <path id="Path_7" data-name="Path 7" d="M8.377,23.7V19.842a1.791,1.791,0,0,1,1.8-1.784H13.8a1.8,1.8,0,0,1,1.271.523,1.778,1.778,0,0,1,.526,1.262V23.7a1.532,1.532,0,0,0,.45,1.095,1.554,1.554,0,0,0,1.1.454h2.476a4.369,4.369,0,0,0,3.085-1.262,4.3,4.3,0,0,0,1.279-3.059v-11a3.122,3.122,0,0,0-1.13-2.4L14.436.853a3.911,3.911,0,0,0-4.985.09L1.221,7.531A3.124,3.124,0,0,0,0,9.932V20.919a4.348,4.348,0,0,0,4.364,4.332H6.783a1.555,1.555,0,0,0,1.56-1.538Z" transform="translate(0 0)" fill="#fff"/>
    </g>
  </g>
</svg>
