<svg xmlns="http://www.w3.org/2000/svg" width="18.71" height="22.012" viewBox="0 0 18.71 22.012">
  <g id="Iconly_Bold_Lock" data-name="Iconly/Bold/Lock" transform="translate(-3.5 -2)" opacity="0.56">
    <g id="Lock" transform="translate(3.5 2)">
      <path id="Path_3" data-name="Path 3" d="M9.338,0a6.01,6.01,0,0,1,6.095,5.939h0V7.626a4.592,4.592,0,0,1,3.277,4.357h0v5.433a4.647,4.647,0,0,1-4.7,4.595H4.7A4.647,4.647,0,0,1,0,17.417H0V11.984A4.593,4.593,0,0,1,3.277,7.626h0V5.939A6.017,6.017,0,0,1,9.338,0Zm.011,12.529a.963.963,0,0,0-.973.951h0v2.428a.979.979,0,0,0,1.957,0h0V13.481A.966.966,0,0,0,9.349,12.529ZM9.361,1.914a4.08,4.08,0,0,0-4.127,4h0V7.389h8.242V5.939A4.074,4.074,0,0,0,9.361,1.914Z" fill="#00a36c"/>
    </g>
  </g>
</svg>
