<svg xmlns="http://www.w3.org/2000/svg" width="25.444" height="26.783" viewBox="0 0 25.444 26.783">
  <g id="Iconly_Bold_Setting" data-name="Iconly/Bold/Setting" transform="translate(-2.5 -2)" opacity="1">
    <g id="Setting" transform="translate(2.5 2)">
      <path id="Path_23" data-name="Path 23" d="M13.682,0a2.882,2.882,0,0,1,2.436,1.393,2.381,2.381,0,0,1,.369,1.419A2.071,2.071,0,0,0,16.8,3.991a2.642,2.642,0,0,0,3.449.924A2.829,2.829,0,0,1,24.1,5.932h0l.917,1.58A2.715,2.715,0,0,1,24,11.3a2.44,2.44,0,0,0-.876,3.348,2.072,2.072,0,0,0,.848.857,3.082,3.082,0,0,1,1.109,1.058,2.7,2.7,0,0,1-.027,2.745h0L24.1,20.918a2.808,2.808,0,0,1-3.873.991,2.183,2.183,0,0,0-1.2-.308,2.556,2.556,0,0,0-2.532,2.437,2.769,2.769,0,0,1-2.833,2.745H11.794a2.772,2.772,0,0,1-2.847-2.745A2.534,2.534,0,0,0,6.429,21.6a2.124,2.124,0,0,0-1.2.308,2.894,2.894,0,0,1-1.451.4,2.857,2.857,0,0,1-2.436-1.393h0L.394,19.311a2.671,2.671,0,0,1-.027-2.745,2.836,2.836,0,0,1,1.095-1.058,2.189,2.189,0,0,0,.862-.857,2.456,2.456,0,0,0-.89-3.348A2.737,2.737,0,0,1,.421,7.513h0l.917-1.58A2.845,2.845,0,0,1,5.2,4.915a2.629,2.629,0,0,0,3.435-.924,2.07,2.07,0,0,0,.315-1.178A2.39,2.39,0,0,1,9.33,1.393,2.939,2.939,0,0,1,11.753,0h1.93Zm-.944,9.615a3.784,3.784,0,1,0,0,7.566,3.784,3.784,0,1,0,0-7.566Z" transform="translate(0)" fill="#fff"/>
    </g>
  </g>
</svg>
