<svg xmlns="http://www.w3.org/2000/svg" width="36.095" height="26.251" viewBox="0 0 36.095 26.251">
  <g id="Iconly_Bold_3-User" data-name="Iconly/Bold/3-User" transform="translate(-1 -4)" opacity="1">
    <g id="_3-User" data-name="3-User" transform="translate(1 4)">
      <path id="_3-Friends" data-name="3-Friends" d="M17.964,17.292c5.63,0,10.436.893,10.436,4.464s-4.776,4.495-10.436,4.495c-5.629,0-10.436-.893-10.436-4.462S12.3,17.292,17.964,17.292Zm9-2.15a25.519,25.519,0,0,1,5.321.465c1.811.356,3,1.083,3.5,2.14a3.155,3.155,0,0,1,0,2.74c-.755,1.639-3.189,2.165-4.136,2.3a.3.3,0,0,1-.332-.337c.483-4.541-3.361-6.694-4.356-7.189a.074.074,0,0,1-.047-.077A.062.062,0,0,1,26.965,15.142Zm-18.239,0,.405,0a.06.06,0,0,1,.051.041.076.076,0,0,1-.046.078c-1,.495-4.841,2.648-4.357,7.187a.3.3,0,0,1-.331.338c-.946-.136-3.38-.662-4.135-2.3a3.144,3.144,0,0,1,0-2.739C.808,16.691,2,15.964,3.809,15.606a25.663,25.663,0,0,1,5.322-.464ZM17.964,0A6.9,6.9,0,0,1,24.87,6.945a6.906,6.906,0,1,1-13.812,0A6.9,6.9,0,0,1,17.964,0Zm9.376,1.158a5.867,5.867,0,0,1,5.619,7.406,5.764,5.764,0,0,1-5.784,4.3,5.572,5.572,0,0,1-.793-.077.26.26,0,0,1-.175-.4,9.584,9.584,0,0,0-.138-10.849.169.169,0,0,1-.026-.18.212.212,0,0,1,.135-.081A5.753,5.753,0,0,1,27.339,1.158Zm-18.585,0a5.776,5.776,0,0,1,1.164.12.223.223,0,0,1,.135.081.172.172,0,0,1-.026.18,9.585,9.585,0,0,0-.138,10.849.26.26,0,0,1-.175.4,5.384,5.384,0,0,1-.793.077,5.764,5.764,0,0,1-5.784-4.3A5.865,5.865,0,0,1,8.755,1.158Z" transform="translate(0 0)" fill="#fff"/>
    </g>
  </g>
</svg>
