<svg xmlns="http://www.w3.org/2000/svg" width="21.302" height="20" viewBox="0 0 21.302 20">
  <path id="Icon_awesome-user-alt" data-name="Icon awesome-user-alt" d="M10.651,11.25a5.818,5.818,0,0,0,5.991-5.625A5.818,5.818,0,0,0,10.651,0,5.818,5.818,0,0,0,4.66,5.625,5.818,5.818,0,0,0,10.651,11.25Zm5.326,1.25H13.684a7.672,7.672,0,0,1-6.066,0H5.326A5.17,5.17,0,0,0,0,17.5v.625A1.939,1.939,0,0,0,2,20H19.3a1.939,1.939,0,0,0,2-1.875V17.5A5.17,5.17,0,0,0,15.977,12.5Z" fill="#00a36c" opacity="0.56"/>
</svg>
